{"title":"Money Talks - Delila - Dong Chair Rising","uid":5003764,"size":829752973,"categoryP":"porn","categoryS":"movie_clips","magnet":"?xt=urn:btih:9d836c6d0bfeebeb596ab70eaff896babaa0407f&amp;dn=Money+Talks+-+Delila+-+Dong+Chair+Rising&amp;tr=udp%3A%2F%2Ftracker.openbittorrent.com%3A80&amp;tr=udp%3A%2F%2Fopen.demonii.com%3A1337&amp;tr=udp%3A%2F%2Ftracker.coppersurfer.tk%3A6969&amp;tr=udp%3A%2F%2Fexodus.desync.com%3A6969","seeders":2,"leechers":5,"uploader":"gorgon99","files":1,"time":1247636396,"description":"&quot;Here we are and yet another exciting episode of Money Talks is at hand. We kick off this episode with a patriotic bit in celebration of the 4th of July. It involves three smoking hot girls, three tiny bikinis and a whole lot of body paint. After that we revisit an old classic, the wonderful pussy pump competition. The girl with the puffiest pussy wins. Then we are serving up some delicious desert Money Talks style of course. We ask one hot little blonde to come back with us and let us cover her in thick delicious honey and then cover her naked body in in sprinkles. This girl has a bangin' ass body. Then for our main bit we got a really good one. We put together a little something called the penis chair, I guess you could say its a chair, only with five legs, and the 5th leg happens to be a guys cock. So we threw it in the back of a van, and cruised the streets to see who would be down to sit on it and spin.&quot;\n &lt;a href=&quot;\nhttp://www.fapstash.com/show.php/12027_thumbs.jpg.html&quot; rel=&quot;nofollow&quot; target=&quot;_NEW&quot;&gt;\nhttp://www.fapstash.com/show.php/12027_thumbs.jpg.html&lt;/a&gt;\n\nOne WMV file\n============\nFormat : Windows Media \nFile size : 791 MiB \nDuration : 1h 16mn \nOverall bit rate mode : Constant \nOverall bit rate : 1 454 Kbps \nMaximum Overall bit rate : 1 463 Kbps \nMovie name : RealityKings.com \nPerformer : delila \nEncoded date : UTC 2009-07-06 19:39:57.314 \nComment : dong chair rising \nRating : Adults Only \n\nVideo  ID : 2 \nFormat : VC-1 \nFormat profile : MP@ML \nCodec ID : WMV3 \nCodec ID/Info : Windows Media Video 9 \nCodec ID/Hint : WMV3 \nDescription of the codec : Windows Media Video 9 - Professional \nDuration : 1h 16mn \nBit rate mode : Constant \nBit rate : 1 400 Kbps \nWidth : 720 pixels \nHeight : 480 pixels \nDisplay aspect ratio : 1.500 \nFrame rate : 29.970 fps \nStandard : NTSC \nResolution : 24 bits \nScan type : Progressive \nBits/(Pixel*Frame) : 0.135 \nStream size : 761 MiB (96%) \n\nAudio  ID : 1 \nFormat : WMA2 \nFormat profile : L2 \nCodec ID : 161 \nCodec ID/Info : Windows Media Audio 2 \nDescription of the codec : Windows Media Audio 9.1 - 48 kbps, 44 kHz, stereo 1-pass CBR \nDuration : 1h 16mn \nBit rate mode : Constant \nBit rate : 48.0 Kbps \nChannel(s) : 2 channels \nSampling rate : 44.1 KHz \nResolution : 16 bits \nStream size : 26.1 MiB (3%) \n","torrent":{"xt":"urn:btih:9d836c6d0bfeebeb596ab70eaff896babaa0407f","amp;dn":"Money+Talks+-+Delila+-+Dong+Chair+Rising","amp;tr":["udp%3A%2F%2Ftracker.openbittorrent.com%3A80","udp%3A%2F%2Fopen.demonii.com%3A1337","udp%3A%2F%2Ftracker.coppersurfer.tk%3A6969","udp%3A%2F%2Fexodus.desync.com%3A6969"],"infoHash":"9d836c6d0bfeebeb596ab70eaff896babaa0407f","infoHashBuffer":{"type":"Buffer","data":[157,131,108,109,11,254,235,235,89,106,183,14,175,248,150,186,186,160,64,127]},"announce":[],"urlList":[]}}